<svg xmlns="http://www.w3.org/2000/svg" x="0px" y="0px"
width="24" height="24"
viewBox="0 0 24 24"
style="fill:#f00;"><polygon points="11,6 11,0 14,3 "></polygon><polygon points="13,18 13,24 10,21 "></polygon><polygon points="18,11 24,11 21,14 "></polygon><g>	<path d="M5.079,8C6.463,5.611,9.041,4,12,4c0.339,0,0.672,0.028,1,0.069V2.05C12.671,2.018,12.338,2,12,2C7.9,2,4.381,4.47,2.838,8		H5.079z"></path>	<path d="M16,5.079c2.389,1.384,4,3.962,4,6.921c0,0.339-0.028,0.672-0.069,1h2.019c0.033-0.329,0.05-0.662,0.05-1		c0-4.1-2.47-7.619-6-9.162V5.079z"></path>	<path d="M8,18.921C5.611,17.537,4,14.959,4,12c0-0.339,0.028-0.672,0.069-1H2.05C2.018,11.329,2,11.662,2,12		c0,4.1,2.47,7.619,6,9.162V18.921z"></path>	<path d="M18.921,16c-1.384,2.389-3.962,4-6.921,4c-0.339,0-0.672-0.028-1-0.069v2.019c0.329,0.033,0.662,0.05,1,0.05		c4.1,0,7.619-2.47,9.162-6H18.921z"></path></g><polygon points="6,13 0,13 3,10 "></polygon></svg>
