<?xml version="1.0" standalone="no"?>
<!DOCTYPE svg PUBLIC "-//W3C//DTD SVG 20010904//EN"
 "http://www.w3.org/TR/2001/REC-SVG-20010904/DTD/svg10.dtd">
<svg version="1.0" xmlns="http://www.w3.org/2000/svg"
 width="150.000000pt" height="150.000000pt" viewBox="0 0 150.000000 150.000000"
 preserveAspectRatio="xMidYMid meet">
<metadata>
Created by potrace 1.11, written by Peter Selinger 2001-2013
</metadata>
<g transform="translate(0.000000,150.000000) scale(0.100000,-0.100000)"
fill="#000000" stroke="none">
<path d="M280 1482 c-66 -33 -96 -109 -70 -177 8 -21 16 -26 38 -23 24 3 27 6
23 38 -8 88 -6 102 16 117 21 14 23 13 34 -9 8 -19 7 -33 -5 -63 -21 -50 -20
-93 5 -160 22 -59 24 -60 63 -45 31 12 32 28 5 82 -23 45 -20 76 12 116 23 29
24 63 4 101 -23 45 -65 53 -125 23z"/>
<path d="M645 1445 c-33 -14 -61 -25 -63 -25 -2 0 -11 -19 -21 -42 -13 -30
-21 -81 -25 -168 -10 -184 -11 -186 -56 -198 -28 -7 -42 -6 -52 3 -44 42 -208
103 -208 78 0 -7 -22 -5 -58 3 -31 8 -69 14 -83 14 -28 0 -62 -30 -58 -52 1
-7 -2 -21 -6 -32 -5 -11 -4 -26 3 -36 9 -14 8 -21 -3 -30 -8 -7 -15 -21 -15
-31 0 -39 74 -51 151 -24 40 14 47 14 104 -5 97 -32 94 -27 99 -175 5 -153 29
-241 102 -367 43 -75 44 -79 28 -103 -9 -14 -22 -25 -29 -25 -7 0 -15 -6 -17
-12 -3 -9 -33 -13 -98 -14 -112 0 -120 -7 -120 -101 l0 -63 68 0 c37 0 111 -3
166 -7 l99 -6 -7 46 c-6 39 -5 47 8 47 9 0 16 6 16 13 0 22 72 83 119 101 75
29 131 35 211 25 59 -8 78 -15 90 -32 8 -12 27 -36 43 -53 15 -17 27 -41 27
-53 0 -12 6 -21 15 -21 8 0 15 -6 15 -13 0 -22 35 -47 72 -53 23 -4 68 4 139
26 192 58 172 47 166 94 -4 28 -14 48 -34 64 -25 21 -35 23 -98 18 -38 -4 -88
-9 -110 -12 -38 -5 -41 -4 -50 22 -10 27 -8 29 35 52 112 59 154 141 148 287
-5 110 -40 205 -109 297 l-46 62 71 34 c39 18 98 38 131 44 33 6 68 17 78 26
21 19 22 61 2 68 -8 4 -15 19 -15 35 0 18 -7 32 -20 39 -13 7 -20 21 -20 41 0
57 -31 51 -149 -26 -37 -25 -74 -45 -82 -45 -8 0 -37 -17 -64 -38 -43 -33 -56
-37 -91 -34 l-41 4 -13 71 c-46 259 -164 356 -345 282z"/>
<path d="M396 1147 c-28 -21 -18 -61 17 -65 27 -3 28 -2 25 34 -3 42 -15 51
-42 31z"/>
</g>
</svg>
